<svg xmlns="http://www.w3.org/2000/svg" viewBox="0 0 45 45">
  <g fill="#1A1A1A" stroke="#F5F5F5" stroke-width="1.5" stroke-linecap="round" stroke-linejoin="round">
    <circle cx="22.5" cy="7.5" r="2.6"/>
    <path d="M22.5 10.5c-4.5 2-7.5 6-7.5 10.5 0 3 1.5 5.5 4 7-2 .8-4.5 1.2-6.5 2 0 0 1.5 1.5 3.5 2-.7 1-1.7 1.2-3 .8 1.3 1.3 3 2.2 3 2.2h12s1.7-.9 3-2.2c-1.3.4-2.3.2-3-.8 2-.5 3.5-2 3.5-2-2-.8-4.5-1.2-6.5-2 2.5-1.5 4-4 4-7 0-4.5-3-8.5-7.5-10.5z"/>
    <path d="M20 19l2.5 6.5L25 19" fill="none"/>
    <path d="M14 32h17l1.5 3.5h-20L14 32z"/>
    <path d="M12 37.5h21l1.5 4h-24l1.5-4z"/>
  </g>
</svg>
